{
	"asset":{
		"generator":"Khronos glTF Blender I/O v4.0.44",
		"version":"2.0"
	},
	"extensionsUsed":[
		"KHR_materials_specular",
		"KHR_materials_ior"
	],
	"scene":0,
	"scenes":[
		{
			"name":"Scene",
			"nodes":[
				12
			]
		}
	],
	"nodes":[
		{
			"mesh":0,
			"name":"mt_14",
			"rotation":[
				0,
				0,
				-0.7071068286895752,
				0.7071068286895752
			],
			"scale":[
				0.5080000162124634,
				0.5080000162124634,
				0.5080000162124634
			],
			"translation":[
				-103.12926483154297,
				0,
				-68.07197570800781
			]
		},
		{
			"mesh":1,
			"name":"mt_15",
			"rotation":[
				0,
				0,
				1,
				7.549789415861596e-08
			],
			"scale":[
				0.5080000162124634,
				0.5080000162124634,
				0.5080000162124634
			],
			"translation":[
				48.00074768066406,
				0,
				-51.3079833984375
			]
		},
		{
			"mesh":2,
			"name":"mt_16",
			"rotation":[
				-0.70710688829422,
				-0.7071066498756409,
				0,
				5.338508302088485e-08
			],
			"scale":[
				0.5080000162124634,
				0.5080000162124634,
				0.5080000162124634
			],
			"translation":[
				77.59173583984375,
				0,
				-88.39198303222656
			]
		},
		{
			"mesh":3,
			"name":"mt_17",
			"scale":[
				0.5080000162124634,
				0.5080000162124634,
				0.5080000162124634
			],
			"translation":[
				108.4527359008789,
				0,
				-51.3079833984375
			]
		},
		{
			"mesh":4,
			"name":"mt_18",
			"scale":[
				0.5080000162124634,
				0.5080000162124634,
				0.5080000162124634
			],
			"translation":[
				30.982738494873047,
				0,
				-51.3079833984375
			]
		},
		{
			"mesh":5,
			"name":"mt_19",
			"scale":[
				0.5080000162124634,
				0.5080000162124634,
				0.5080000162124634
			],
			"translation":[
				-19.309263229370117,
				0,
				-51.3079833984375
			]
		},
		{
			"mesh":6,
			"name":"mt_2",
			"translation":[
				0,
				-323.29498291015625,
				0
			]
		},
		{
			"mesh":7,
			"name":"mt_20",
			"rotation":[
				0,
				0,
				1,
				7.549789415861596e-08
			],
			"scale":[
				0.5080000162124634,
				0.5080000162124634,
				0.5080000162124634
			],
			"translation":[
				-14.737251281738281,
				0,
				-51.3079833984375
			]
		},
		{
			"mesh":8,
			"name":"mt_21",
			"rotation":[
				0,
				0,
				1,
				7.549789415861596e-08
			],
			"scale":[
				0.5080000162124634,
				0.5080000162124634,
				0.5080000162124634
			],
			"translation":[
				149.0927276611328,
				0,
				-51.3079833984375
			]
		},
		{
			"mesh":9,
			"name":"mt_3",
			"translation":[
				0,
				-323.29498291015625,
				0
			]
		},
		{
			"mesh":10,
			"name":"mt_48",
			"rotation":[
				0,
				0,
				1,
				7.549789415861596e-08
			],
			"scale":[
				0.5080000162124634,
				0.5080000162124634,
				0.5080000162124634
			],
			"translation":[
				30.982738494873047,
				0,
				-51.307987213134766
			]
		},
		{
			"mesh":11,
			"name":"mt_49",
			"scale":[
				0.5080000162124634,
				0.5080000162124634,
				0.5080000162124634
			],
			"translation":[
				70.60673522949219,
				0,
				-96.01197814941406
			]
		},
		{
			"children":[
				0,
				1,
				2,
				3,
				4,
				5,
				6,
				7,
				8,
				9,
				10,
				11
			],
			"name":"m6",
			"rotation":[
				0.7071068286895752,
				0,
				0,
				0.7071068286895752
			],
			"scale":[
				0.009999999776482582,
				0.009999999776482582,
				0.009999999776482582
			]
		}
	],
	"materials":[
		{
			"doubleSided":true,
			"extensions":{
				"KHR_materials_specular":{
					"specularColorFactor":[
						2.0,
						2.0,
						2.0
					]
				},
				"KHR_materials_ior":{
					"ior":1.4500000476837158
				}
			},
			"name":"blinn1",
			"pbrMetallicRoughness":{
				"baseColorFactor":[
					0.547173261642456,
					0.547173261642456,
					0.547173261642456,
					1
				],
				"metallicFactor":0.5786163806915283,
				"roughnessFactor":0.7557551264762878
			}
		},
		{
			"doubleSided":true,
			"extensions":{
				"KHR_materials_specular":{
					"specularColorFactor":[
						2.0,
						2.0,
						2.0
					]
				},
				"KHR_materials_ior":{
					"ior":1.4500000476837158
				}
			},
			"name":"lambert1",
			"pbrMetallicRoughness":{
				"baseColorFactor":[
					0.5,
					0.5,
					0.5,
					1
				],
				"roughnessFactor":0.5527864098548889
			}
		}
	],
	"meshes":[
		{
			"name":"Mesh.041",
			"primitives":[
				{
					"attributes":{
						"POSITION":0,
						"NORMAL":1,
						"TEXCOORD_0":2
					},
					"indices":3,
					"material":0
				}
			]
		},
		{
			"name":"Mesh.042",
			"primitives":[
				{
					"attributes":{
						"POSITION":4,
						"NORMAL":5,
						"TEXCOORD_0":6
					},
					"indices":7,
					"material":1
				}
			]
		},
		{
			"name":"Mesh.043",
			"primitives":[
				{
					"attributes":{
						"POSITION":8,
						"NORMAL":9,
						"TEXCOORD_0":10
					},
					"indices":11,
					"material":1
				}
			]
		},
		{
			"name":"Mesh.044",
			"primitives":[
				{
					"attributes":{
						"POSITION":12,
						"NORMAL":13,
						"TEXCOORD_0":14
					},
					"indices":15,
					"material":1
				}
			]
		},
		{
			"name":"Mesh.045",
			"primitives":[
				{
					"attributes":{
						"POSITION":16,
						"NORMAL":17,
						"TEXCOORD_0":18
					},
					"indices":19,
					"material":1
				}
			]
		},
		{
			"name":"Mesh.046",
			"primitives":[
				{
					"attributes":{
						"POSITION":20,
						"NORMAL":21,
						"TEXCOORD_0":22
					},
					"indices":23,
					"material":1
				}
			]
		},
		{
			"name":"Mesh.039",
			"primitives":[
				{
					"attributes":{
						"POSITION":24,
						"NORMAL":25,
						"TEXCOORD_0":26,
						"TEXCOORD_1":27
					},
					"indices":28,
					"material":0
				}
			]
		},
		{
			"name":"Mesh.047",
			"primitives":[
				{
					"attributes":{
						"POSITION":29,
						"NORMAL":30,
						"TEXCOORD_0":31
					},
					"indices":32,
					"material":1
				}
			]
		},
		{
			"name":"Mesh.048",
			"primitives":[
				{
					"attributes":{
						"POSITION":33,
						"NORMAL":34,
						"TEXCOORD_0":35
					},
					"indices":36,
					"material":1
				}
			]
		},
		{
			"name":"Mesh.040",
			"primitives":[
				{
					"attributes":{
						"POSITION":37,
						"NORMAL":38,
						"TEXCOORD_0":39,
						"TEXCOORD_1":40
					},
					"indices":41,
					"material":1
				}
			]
		},
		{
			"name":"Mesh.049",
			"primitives":[
				{
					"attributes":{
						"POSITION":42,
						"NORMAL":43,
						"TEXCOORD_0":44,
						"TEXCOORD_1":45
					},
					"indices":46,
					"material":1
				}
			]
		},
		{
			"name":"Mesh.050",
			"primitives":[
				{
					"attributes":{
						"POSITION":47,
						"NORMAL":48,
						"TEXCOORD_0":49,
						"TEXCOORD_1":50
					},
					"indices":51,
					"material":1
				}
			]
		}
	],
	"accessors":[
		{
			"bufferView":0,
			"componentType":5126,
			"count":568,
			"max":[
				126.125,
				27.5,
				27.5
			],
			"min":[
				-68.125,
				-27.5,
				-27.5
			],
			"type":"VEC3"
		},
		{
			"bufferView":1,
			"componentType":5126,
			"count":568,
			"type":"VEC3"
		},
		{
			"bufferView":2,
			"componentType":5126,
			"count":568,
			"type":"VEC2"
		},
		{
			"bufferView":3,
			"componentType":5123,
			"count":1506,
			"type":"SCALAR"
		},
		{
			"bufferView":4,
			"componentType":5126,
			"count":1634,
			"max":[
				37,
				100,
				100
			],
			"min":[
				-135,
				-100,
				-100
			],
			"type":"VEC3"
		},
		{
			"bufferView":5,
			"componentType":5126,
			"count":1634,
			"type":"VEC3"
		},
		{
			"bufferView":6,
			"componentType":5126,
			"count":1634,
			"type":"VEC2"
		},
		{
			"bufferView":7,
			"componentType":5123,
			"count":4410,
			"type":"SCALAR"
		},
		{
			"bufferView":8,
			"componentType":5126,
			"count":624,
			"max":[
				36,
				12,
				13.856406211853027
			],
			"min":[
				0,
				-12,
				-13.856406211853027
			],
			"type":"VEC3"
		},
		{
			"bufferView":9,
			"componentType":5126,
			"count":624,
			"type":"VEC3"
		},
		{
			"bufferView":10,
			"componentType":5126,
			"count":624,
			"type":"VEC2"
		},
		{
			"bufferView":11,
			"componentType":5123,
			"count":2052,
			"type":"SCALAR"
		},
		{
			"bufferView":12,
			"componentType":5126,
			"count":709,
			"max":[
				80,
				78.94999694824219,
				78.94999694824219
			],
			"min":[
				0,
				-78.94999694824219,
				-78.94999694824219
			],
			"type":"VEC3"
		},
		{
			"bufferView":13,
			"componentType":5126,
			"count":709,
			"type":"VEC3"
		},
		{
			"bufferView":14,
			"componentType":5126,
			"count":709,
			"type":"VEC2"
		},
		{
			"bufferView":15,
			"componentType":5123,
			"count":3186,
			"type":"SCALAR"
		},
		{
			"bufferView":16,
			"componentType":5126,
			"count":656,
			"max":[
				20,
				10,
				10
			],
			"min":[
				-40,
				-10,
				-12
			],
			"type":"VEC3"
		},
		{
			"bufferView":17,
			"componentType":5126,
			"count":656,
			"type":"VEC3"
		},
		{
			"bufferView":18,
			"componentType":5126,
			"count":656,
			"type":"VEC2"
		},
		{
			"bufferView":19,
			"componentType":5123,
			"count":1746,
			"type":"SCALAR"
		},
		{
			"bufferView":20,
			"componentType":5126,
			"count":436,
			"max":[
				94,
				16,
				16
			],
			"min":[
				0,
				-16,
				-16
			],
			"type":"VEC3"
		},
		{
			"bufferView":21,
			"componentType":5126,
			"count":436,
			"type":"VEC3"
		},
		{
			"bufferView":22,
			"componentType":5126,
			"count":436,
			"type":"VEC2"
		},
		{
			"bufferView":23,
			"componentType":5123,
			"count":1584,
			"type":"SCALAR"
		},
		{
			"bufferView":24,
			"componentType":5126,
			"count":936,
			"max":[
				43.682743072509766,
				357.2479248046875,
				-16.6871337890625
			],
			"min":[
				22.34673309326172,
				289.3421936035156,
				-85.9288330078125
			],
			"type":"VEC3"
		},
		{
			"bufferView":25,
			"componentType":5126,
			"count":936,
			"type":"VEC3"
		},
		{
			"bufferView":26,
			"componentType":5126,
			"count":936,
			"type":"VEC2"
		},
		{
			"bufferView":27,
			"componentType":5126,
			"count":936,
			"type":"VEC2"
		},
		{
			"bufferView":28,
			"componentType":5123,
			"count":2184,
			"type":"SCALAR"
		},
		{
			"bufferView":29,
			"componentType":5126,
			"count":8342,
			"max":[
				266.20001220703125,
				75,
				101.19144439697266
			],
			"min":[
				-2.9103830456733704e-11,
				-75,
				-119.0999984741211
			],
			"type":"VEC3"
		},
		{
			"bufferView":30,
			"componentType":5126,
			"count":8342,
			"type":"VEC3"
		},
		{
			"bufferView":31,
			"componentType":5126,
			"count":8342,
			"type":"VEC2"
		},
		{
			"bufferView":32,
			"componentType":5123,
			"count":20964,
			"type":"SCALAR"
		},
		{
			"bufferView":33,
			"componentType":5126,
			"count":3475,
			"max":[
				202,
				80.14500427246094,
				80.14500427246094
			],
			"min":[
				65,
				-80.14500427246094,
				-88
			],
			"type":"VEC3"
		},
		{
			"bufferView":34,
			"componentType":5126,
			"count":3475,
			"type":"VEC3"
		},
		{
			"bufferView":35,
			"componentType":5126,
			"count":3475,
			"type":"VEC2"
		},
		{
			"bufferView":36,
			"componentType":5123,
			"count":8214,
			"type":"SCALAR"
		},
		{
			"bufferView":37,
			"componentType":5126,
			"count":704,
			"max":[
				90.41873168945312,
				341.5830383300781,
				-100.583984375
			],
			"min":[
				50.794734954833984,
				305.007080078125,
				-102.21955871582031
			],
			"type":"VEC3"
		},
		{
			"bufferView":38,
			"componentType":5126,
			"count":704,
			"type":"VEC3"
		},
		{
			"bufferView":39,
			"componentType":5126,
			"count":704,
			"type":"VEC2"
		},
		{
			"bufferView":40,
			"componentType":5126,
			"count":704,
			"type":"VEC2"
		},
		{
			"bufferView":41,
			"componentType":5123,
			"count":1992,
			"type":"SCALAR"
		},
		{
			"bufferView":42,
			"componentType":5126,
			"count":1766,
			"max":[
				98,
				100.00006103515625,
				100.00000762939453
			],
			"min":[
				0,
				-100,
				-100
			],
			"type":"VEC3"
		},
		{
			"bufferView":43,
			"componentType":5126,
			"count":1766,
			"type":"VEC3"
		},
		{
			"bufferView":44,
			"componentType":5126,
			"count":1766,
			"type":"VEC2"
		},
		{
			"bufferView":45,
			"componentType":5126,
			"count":1766,
			"type":"VEC2"
		},
		{
			"bufferView":46,
			"componentType":5123,
			"count":4590,
			"type":"SCALAR"
		},
		{
			"bufferView":47,
			"componentType":5126,
			"count":558,
			"max":[
				40,
				36.99993896484375,
				0
			],
			"min":[
				-40,
				-37,
				-33
			],
			"type":"VEC3"
		},
		{
			"bufferView":48,
			"componentType":5126,
			"count":558,
			"type":"VEC3"
		},
		{
			"bufferView":49,
			"componentType":5126,
			"count":558,
			"type":"VEC2"
		},
		{
			"bufferView":50,
			"componentType":5126,
			"count":558,
			"type":"VEC2"
		},
		{
			"bufferView":51,
			"componentType":5123,
			"count":1482,
			"type":"SCALAR"
		}
	],
	"bufferViews":[
		{
			"buffer":0,
			"byteLength":6816,
			"byteOffset":0,
			"target":34962
		},
		{
			"buffer":0,
			"byteLength":6816,
			"byteOffset":6816,
			"target":34962
		},
		{
			"buffer":0,
			"byteLength":4544,
			"byteOffset":13632,
			"target":34962
		},
		{
			"buffer":0,
			"byteLength":3012,
			"byteOffset":18176,
			"target":34963
		},
		{
			"buffer":0,
			"byteLength":19608,
			"byteOffset":21188,
			"target":34962
		},
		{
			"buffer":0,
			"byteLength":19608,
			"byteOffset":40796,
			"target":34962
		},
		{
			"buffer":0,
			"byteLength":13072,
			"byteOffset":60404,
			"target":34962
		},
		{
			"buffer":0,
			"byteLength":8820,
			"byteOffset":73476,
			"target":34963
		},
		{
			"buffer":0,
			"byteLength":7488,
			"byteOffset":82296,
			"target":34962
		},
		{
			"buffer":0,
			"byteLength":7488,
			"byteOffset":89784,
			"target":34962
		},
		{
			"buffer":0,
			"byteLength":4992,
			"byteOffset":97272,
			"target":34962
		},
		{
			"buffer":0,
			"byteLength":4104,
			"byteOffset":102264,
			"target":34963
		},
		{
			"buffer":0,
			"byteLength":8508,
			"byteOffset":106368,
			"target":34962
		},
		{
			"buffer":0,
			"byteLength":8508,
			"byteOffset":114876,
			"target":34962
		},
		{
			"buffer":0,
			"byteLength":5672,
			"byteOffset":123384,
			"target":34962
		},
		{
			"buffer":0,
			"byteLength":6372,
			"byteOffset":129056,
			"target":34963
		},
		{
			"buffer":0,
			"byteLength":7872,
			"byteOffset":135428,
			"target":34962
		},
		{
			"buffer":0,
			"byteLength":7872,
			"byteOffset":143300,
			"target":34962
		},
		{
			"buffer":0,
			"byteLength":5248,
			"byteOffset":151172,
			"target":34962
		},
		{
			"buffer":0,
			"byteLength":3492,
			"byteOffset":156420,
			"target":34963
		},
		{
			"buffer":0,
			"byteLength":5232,
			"byteOffset":159912,
			"target":34962
		},
		{
			"buffer":0,
			"byteLength":5232,
			"byteOffset":165144,
			"target":34962
		},
		{
			"buffer":0,
			"byteLength":3488,
			"byteOffset":170376,
			"target":34962
		},
		{
			"buffer":0,
			"byteLength":3168,
			"byteOffset":173864,
			"target":34963
		},
		{
			"buffer":0,
			"byteLength":11232,
			"byteOffset":177032,
			"target":34962
		},
		{
			"buffer":0,
			"byteLength":11232,
			"byteOffset":188264,
			"target":34962
		},
		{
			"buffer":0,
			"byteLength":7488,
			"byteOffset":199496,
			"target":34962
		},
		{
			"buffer":0,
			"byteLength":7488,
			"byteOffset":206984,
			"target":34962
		},
		{
			"buffer":0,
			"byteLength":4368,
			"byteOffset":214472,
			"target":34963
		},
		{
			"buffer":0,
			"byteLength":100104,
			"byteOffset":218840,
			"target":34962
		},
		{
			"buffer":0,
			"byteLength":100104,
			"byteOffset":318944,
			"target":34962
		},
		{
			"buffer":0,
			"byteLength":66736,
			"byteOffset":419048,
			"target":34962
		},
		{
			"buffer":0,
			"byteLength":41928,
			"byteOffset":485784,
			"target":34963
		},
		{
			"buffer":0,
			"byteLength":41700,
			"byteOffset":527712,
			"target":34962
		},
		{
			"buffer":0,
			"byteLength":41700,
			"byteOffset":569412,
			"target":34962
		},
		{
			"buffer":0,
			"byteLength":27800,
			"byteOffset":611112,
			"target":34962
		},
		{
			"buffer":0,
			"byteLength":16428,
			"byteOffset":638912,
			"target":34963
		},
		{
			"buffer":0,
			"byteLength":8448,
			"byteOffset":655340,
			"target":34962
		},
		{
			"buffer":0,
			"byteLength":8448,
			"byteOffset":663788,
			"target":34962
		},
		{
			"buffer":0,
			"byteLength":5632,
			"byteOffset":672236,
			"target":34962
		},
		{
			"buffer":0,
			"byteLength":5632,
			"byteOffset":677868,
			"target":34962
		},
		{
			"buffer":0,
			"byteLength":3984,
			"byteOffset":683500,
			"target":34963
		},
		{
			"buffer":0,
			"byteLength":21192,
			"byteOffset":687484,
			"target":34962
		},
		{
			"buffer":0,
			"byteLength":21192,
			"byteOffset":708676,
			"target":34962
		},
		{
			"buffer":0,
			"byteLength":14128,
			"byteOffset":729868,
			"target":34962
		},
		{
			"buffer":0,
			"byteLength":14128,
			"byteOffset":743996,
			"target":34962
		},
		{
			"buffer":0,
			"byteLength":9180,
			"byteOffset":758124,
			"target":34963
		},
		{
			"buffer":0,
			"byteLength":6696,
			"byteOffset":767304,
			"target":34962
		},
		{
			"buffer":0,
			"byteLength":6696,
			"byteOffset":774000,
			"target":34962
		},
		{
			"buffer":0,
			"byteLength":4464,
			"byteOffset":780696,
			"target":34962
		},
		{
			"buffer":0,
			"byteLength":4464,
			"byteOffset":785160,
			"target":34962
		},
		{
			"buffer":0,
			"byteLength":2964,
			"byteOffset":789624,
			"target":34963
		}
	],
	"buffers":[
		{
			"byteLength":792588,
			"uri":"m.bin"
		}
	]
}
