{
	"asset":{
		"generator":"Khronos glTF Blender I/O v3.6.28",
		"version":"2.0"
	},
	"scene":0,
	"scenes":[
		{
			"name":"Scene",
			"nodes":[
				0,
				1,
				2,
				3,
				4,
				5
			]
		}
	],
	"nodes":[
		{
			"mesh":0,
			"name":"Hose_low"
		},
		{
			"mesh":1,
			"name":"RubberWood_low"
		},
		{
			"mesh":2,
			"name":"GlassPlastic_low"
		},
		{
			"mesh":3,
			"name":"MetalParts_low"
		},
		{
			"mesh":4,
			"name":"LeatherParts_low"
		},
		{
			"mesh":5,
			"name":"Lenses_low"
		}
	],
	"meshes":[
		{
			"name":"Hose_low",
			"primitives":[
				{
					"attributes":{
						"POSITION":0,
						"NORMAL":1,
						"TEXCOORD_0":2
					},
					"indices":3
				}
			]
		},
		{
			"name":"RubberWood_low",
			"primitives":[
				{
					"attributes":{
						"POSITION":4,
						"NORMAL":5,
						"TEXCOORD_0":6
					},
					"indices":7
				}
			]
		},
		{
			"name":"GlassPlastic_low",
			"primitives":[
				{
					"attributes":{
						"POSITION":8,
						"NORMAL":9,
						"TEXCOORD_0":10
					},
					"indices":11
				}
			]
		},
		{
			"name":"MetalParts_low",
			"primitives":[
				{
					"attributes":{
						"POSITION":12,
						"NORMAL":13,
						"TEXCOORD_0":14
					},
					"indices":15
				}
			]
		},
		{
			"name":"LeatherParts_low",
			"primitives":[
				{
					"attributes":{
						"POSITION":16,
						"NORMAL":17,
						"TEXCOORD_0":18
					},
					"indices":19
				}
			]
		},
		{
			"name":"Lenses_low",
			"primitives":[
				{
					"attributes":{
						"POSITION":20,
						"NORMAL":21,
						"TEXCOORD_0":22
					},
					"indices":23
				}
			]
		}
	],
	"accessors":[
		{
			"bufferView":0,
			"componentType":5126,
			"count":10472,
			"max":[
				0.108108289539814,
				0.3565802574157715,
				0.19040986895561218
			],
			"min":[
				-0.0722125768661499,
				0.10412022471427917,
				-0.08839477598667145
			],
			"type":"VEC3"
		},
		{
			"bufferView":1,
			"componentType":5126,
			"count":10472,
			"type":"VEC3"
		},
		{
			"bufferView":2,
			"componentType":5126,
			"count":10472,
			"type":"VEC2"
		},
		{
			"bufferView":3,
			"componentType":5123,
			"count":59040,
			"type":"SCALAR"
		},
		{
			"bufferView":4,
			"componentType":5126,
			"count":13645,
			"max":[
				0.1629406362771988,
				0.7025225758552551,
				0.2000291645526886
			],
			"min":[
				-0.15885746479034424,
				-2.142429366358556e-05,
				-0.17154578864574432
			],
			"type":"VEC3"
		},
		{
			"bufferView":5,
			"componentType":5126,
			"count":13645,
			"type":"VEC3"
		},
		{
			"bufferView":6,
			"componentType":5126,
			"count":13645,
			"type":"VEC2"
		},
		{
			"bufferView":7,
			"componentType":5123,
			"count":72534,
			"type":"SCALAR"
		},
		{
			"bufferView":8,
			"componentType":5126,
			"count":4812,
			"max":[
				0.14049406349658966,
				0.6182865500450134,
				0.14737364649772644
			],
			"min":[
				-0.14084601402282715,
				0.4409570097923279,
				-0.1078183650970459
			],
			"type":"VEC3"
		},
		{
			"bufferView":9,
			"componentType":5126,
			"count":4812,
			"type":"VEC3"
		},
		{
			"bufferView":10,
			"componentType":5126,
			"count":4812,
			"type":"VEC2"
		},
		{
			"bufferView":11,
			"componentType":5123,
			"count":24408,
			"type":"SCALAR"
		},
		{
			"bufferView":12,
			"componentType":5126,
			"count":13673,
			"max":[
				0.1327083706855774,
				0.6024364233016968,
				0.19947707653045654
			],
			"min":[
				-0.20364271104335785,
				0.021160749718546867,
				-0.14751268923282623
			],
			"type":"VEC3"
		},
		{
			"bufferView":13,
			"componentType":5126,
			"count":13673,
			"type":"VEC3"
		},
		{
			"bufferView":14,
			"componentType":5126,
			"count":13673,
			"type":"VEC2"
		},
		{
			"bufferView":15,
			"componentType":5123,
			"count":60288,
			"type":"SCALAR"
		},
		{
			"bufferView":16,
			"componentType":5126,
			"count":12537,
			"max":[
				0.12493337690830231,
				0.7160004377365112,
				0.1291685551404953
			],
			"min":[
				-0.12586301565170288,
				0.29582661390304565,
				-0.15415160357952118
			],
			"type":"VEC3"
		},
		{
			"bufferView":17,
			"componentType":5126,
			"count":12537,
			"type":"VEC3"
		},
		{
			"bufferView":18,
			"componentType":5126,
			"count":12537,
			"type":"VEC2"
		},
		{
			"bufferView":19,
			"componentType":5123,
			"count":65688,
			"type":"SCALAR"
		},
		{
			"bufferView":20,
			"componentType":5126,
			"count":439,
			"max":[
				0.10192074626684189,
				0.5936986207962036,
				0.1529267281293869
			],
			"min":[
				-0.101920947432518,
				0.5300428867340088,
				0.09017482399940491
			],
			"type":"VEC3"
		},
		{
			"bufferView":21,
			"componentType":5126,
			"count":439,
			"type":"VEC3"
		},
		{
			"bufferView":22,
			"componentType":5126,
			"count":439,
			"type":"VEC2"
		},
		{
			"bufferView":23,
			"componentType":5123,
			"count":2208,
			"type":"SCALAR"
		}
	],
	"bufferViews":[
		{
			"buffer":0,
			"byteLength":125664,
			"byteOffset":0,
			"target":34962
		},
		{
			"buffer":0,
			"byteLength":125664,
			"byteOffset":125664,
			"target":34962
		},
		{
			"buffer":0,
			"byteLength":83776,
			"byteOffset":251328,
			"target":34962
		},
		{
			"buffer":0,
			"byteLength":118080,
			"byteOffset":335104,
			"target":34963
		},
		{
			"buffer":0,
			"byteLength":163740,
			"byteOffset":453184,
			"target":34962
		},
		{
			"buffer":0,
			"byteLength":163740,
			"byteOffset":616924,
			"target":34962
		},
		{
			"buffer":0,
			"byteLength":109160,
			"byteOffset":780664,
			"target":34962
		},
		{
			"buffer":0,
			"byteLength":145068,
			"byteOffset":889824,
			"target":34963
		},
		{
			"buffer":0,
			"byteLength":57744,
			"byteOffset":1034892,
			"target":34962
		},
		{
			"buffer":0,
			"byteLength":57744,
			"byteOffset":1092636,
			"target":34962
		},
		{
			"buffer":0,
			"byteLength":38496,
			"byteOffset":1150380,
			"target":34962
		},
		{
			"buffer":0,
			"byteLength":48816,
			"byteOffset":1188876,
			"target":34963
		},
		{
			"buffer":0,
			"byteLength":164076,
			"byteOffset":1237692,
			"target":34962
		},
		{
			"buffer":0,
			"byteLength":164076,
			"byteOffset":1401768,
			"target":34962
		},
		{
			"buffer":0,
			"byteLength":109384,
			"byteOffset":1565844,
			"target":34962
		},
		{
			"buffer":0,
			"byteLength":120576,
			"byteOffset":1675228,
			"target":34963
		},
		{
			"buffer":0,
			"byteLength":150444,
			"byteOffset":1795804,
			"target":34962
		},
		{
			"buffer":0,
			"byteLength":150444,
			"byteOffset":1946248,
			"target":34962
		},
		{
			"buffer":0,
			"byteLength":100296,
			"byteOffset":2096692,
			"target":34962
		},
		{
			"buffer":0,
			"byteLength":131376,
			"byteOffset":2196988,
			"target":34963
		},
		{
			"buffer":0,
			"byteLength":5268,
			"byteOffset":2328364,
			"target":34962
		},
		{
			"buffer":0,
			"byteLength":5268,
			"byteOffset":2333632,
			"target":34962
		},
		{
			"buffer":0,
			"byteLength":3512,
			"byteOffset":2338900,
			"target":34962
		},
		{
			"buffer":0,
			"byteLength":4416,
			"byteOffset":2342412,
			"target":34963
		}
	],
	"buffers":[
		{
			"byteLength":2346828,
			"uri":"data:application/octet-stream;base64,"
		}
	]
}
